<?xml version="1.0" standalone="no"?>
<!DOCTYPE svg PUBLIC "-//W3C//DTD SVG 20010904//EN"
 "http://www.w3.org/TR/2001/REC-SVG-20010904/DTD/svg10.dtd">
<svg version="1.0" xmlns="http://www.w3.org/2000/svg"
 width="1800.000000pt" height="1800.000000pt" viewBox="0 0 1800.000000 1800.000000"
 preserveAspectRatio="xMidYMid meet">
<metadata>
Created by potrace 1.14, written by Peter Selinger 2001-2017
</metadata>
<g transform="translate(0.000000,1800.000000) scale(0.100000,-0.100000)"
fill="#000000" stroke="none">
<path d="M10096 17462 c-64 -18 -72 -23 -135 -93 -115 -129 -509 -535 -556
-574 -69 -56 -562 -571 -694 -725 -205 -238 -342 -426 -461 -633 -82 -144
-138 -272 -211 -485 -124 -364 -265 -655 -442 -915 -99 -146 -165 -195 -411
-305 -209 -94 -287 -154 -347 -267 -24 -44 -25 -45 -74 -45 -27 0 -108 5 -180
10 -429 32 -1818 46 -2090 22 -557 -50 -904 -144 -1065 -289 -130 -116 -134
-272 -14 -456 107 -163 407 -417 751 -636 150 -96 384 -221 413 -221 9 0 159
70 335 155 175 85 322 152 325 147 4 -4 17 -65 29 -137 21 -122 26 -138 88
-255 36 -69 67 -127 69 -129 2 -2 96 26 210 63 114 37 208 65 209 64 2 -2 39
-73 84 -158 56 -110 82 -170 87 -207 3 -29 12 -59 18 -66 21 -27 579 -225 846
-301 1082 -307 2074 -511 3142 -646 973 -122 1791 -172 2843 -172 812 0 1431
24 1700 67 83 14 290 36 460 50 458 37 615 59 890 125 324 77 528 181 602 307
50 86 27 229 -66 408 -47 92 -175 222 -300 303 -149 98 -424 226 -671 312
l-66 23 -43 -31 -44 -32 -168 0 -168 0 -96 125 c-92 118 -99 125 -148 139
-114 32 -538 139 -797 200 -346 83 -367 89 -413 127 -85 70 -111 168 -132 488
-18 269 -30 336 -91 481 -110 265 -248 472 -654 990 -220 281 -272 352 -381
518 -103 156 -204 356 -254 502 -30 88 -67 220 -62 220 1 0 220 -16 487 -35
l485 -35 52 26 c95 46 137 161 95 256 -16 36 -63 82 -262 254 -608 524 -902
755 -1260 989 -360 237 -661 383 -938 456 -104 28 -136 32 -287 35 -142 3
-181 1 -239 -14z m866 -511 c10 -30 17 -56 15 -57 -1 -1 -54 24 -117 57 l-115
58 100 -2 100 -2 17 -54z m-701 -517 c449 -230 635 -566 524 -947 -81 -278
-266 -504 -508 -622 -148 -71 -227 -89 -392 -90 -156 0 -221 13 -357 70 -187
79 -427 282 -397 336 9 17 23 19 153 19 241 0 349 27 555 138 209 112 306 230
345 424 34 164 14 408 -49 595 -27 81 -33 109 -24 119 18 22 34 18 150 -42z
m1182 -1773 c41 -16 92 -75 181 -209 165 -250 155 -243 371 -253 197 -8 260
-24 304 -74 24 -27 31 -45 31 -76 0 -44 -15 -77 -120 -259 -39 -68 -74 -137
-77 -152 -8 -43 12 -106 88 -274 103 -227 109 -289 37 -334 -42 -26 -52 -24
-228 60 -247 116 -251 116 -367 9 -152 -139 -241 -187 -299 -160 -52 23 -83
141 -105 395 -18 202 -17 201 -326 438 -73 56 -112 105 -120 151 -4 28 0 40
26 69 38 44 92 67 246 108 73 20 129 40 143 53 31 29 48 94 71 274 11 84 25
161 30 172 12 21 68 71 81 71 5 0 20 -4 33 -9z m-1969 -639 c49 -45 49 -113
-4 -277 -48 -150 -70 -248 -70 -310 0 -56 23 -84 154 -183 177 -134 228 -202
207 -273 -24 -79 -78 -105 -420 -199 -101 -28 -196 -57 -211 -65 -60 -31 -118
-115 -234 -341 -90 -174 -163 -244 -254 -244 -71 0 -106 42 -173 210 -55 140
-81 189 -119 225 l-31 30 -249 -4 c-269 -3 -305 1 -340 46 -60 76 0 163 303
436 123 112 139 141 138 256 0 47 -7 124 -16 171 -21 117 -20 236 3 279 24 48
82 92 129 98 53 7 140 -17 308 -84 218 -89 237 -85 496 85 264 174 324 196
383 144z m-3605 -1137 c74 -14 137 -29 140 -33 68 -94 130 -194 118 -189 -9 3
-65 39 -124 79 -59 39 -148 93 -198 120 -49 26 -85 48 -80 48 6 0 71 -11 144
-25z m-160 -201 c7 -31 11 -57 9 -59 -2 -2 -36 4 -76 12 -66 15 -76 20 -102
57 -17 22 -30 42 -30 45 0 4 42 5 94 3 l93 -3 12 -55z m5950 -602 l153 -68 68
-105 c38 -57 67 -105 66 -106 -4 -4 -239 96 -246 104 -84 93 -206 243 -198
243 2 0 73 -31 157 -68z m1293 -616 c185 -49 187 -48 -47 -66 -77 -6 -208 -22
-292 -35 -84 -14 -155 -25 -160 -25 -4 0 58 40 137 89 114 70 151 89 172 85
14 -3 100 -25 190 -48z"/>
<path d="M5300 10938 c-154 -48 -155 -49 -207 -104 -175 -188 -416 -540 -655
-959 -307 -537 -911 -1869 -1083 -2391 -134 -405 -181 -693 -172 -1058 9 -369
77 -676 244 -1101 102 -258 354 -786 484 -1010 100 -173 209 -289 326 -347 63
-31 74 -33 168 -33 55 0 141 5 190 12 106 13 172 5 252 -32 203 -93 337 -357
319 -630 -8 -134 -39 -265 -129 -541 -103 -316 -120 -401 -121 -589 0 -114 4
-166 18 -215 20 -73 83 -199 102 -207 8 -3 52 16 100 41 96 51 104 54 81 28
-64 -70 -77 -224 -29 -327 31 -65 93 -128 148 -151 49 -20 173 -18 238 5 66
23 135 70 194 130 52 55 132 214 161 321 12 41 93 417 181 835 88 418 171 797
185 841 76 247 265 316 426 155 82 -83 103 -142 103 -296 0 -110 -9 -170 -107
-700 -123 -670 -137 -768 -137 -949 0 -281 72 -474 233 -628 229 -218 536
-206 725 28 125 157 191 373 247 809 45 359 97 644 175 956 68 270 123 393
225 494 188 188 417 86 465 -207 17 -109 12 -183 -66 -856 -82 -715 -94 -872
-75 -1003 34 -233 146 -411 309 -491 64 -32 71 -33 187 -33 112 0 125 2 192
31 145 63 306 191 356 281 51 95 44 188 -19 251 l-34 34 57 -6 c32 -4 76 -9
98 -12 l41 -6 37 139 c72 269 166 877 205 1328 l7 80 55 12 c30 6 116 12 192
12 176 1 287 -18 688 -118 447 -112 661 -145 1030 -157 668 -22 1384 134 1960
427 335 170 527 361 644 637 24 59 76 215 115 347 103 356 138 443 282 707
184 338 255 504 308 714 70 280 86 441 85 879 0 462 -33 823 -111 1232 -24
129 -29 143 -47 143 -12 1 -121 9 -244 19 -206 17 -224 20 -247 41 -33 31 -34
88 -2 117 12 11 112 58 222 103 110 46 201 84 203 85 5 4 -87 311 -134 445
-71 206 -164 421 -279 649 -78 154 -236 446 -260 478 -1 2 -133 -4 -293 -12
-900 -45 -1924 -38 -2807 20 -1138 75 -2256 235 -3335 476 -618 139 -1426 359
-1735 474 -99 36 -308 114 -464 171 -157 57 -286 106 -288 107 -2 2 -8 30 -14
63 -6 32 -12 59 -12 60 -1 1 -72 -21 -157 -48z m737 -1067 c125 -27 254 -54
285 -61 l57 -11 182 -286 c105 -163 192 -289 203 -293 12 -5 391 -72 843 -149
737 -126 927 -155 1847 -276 l1025 -136 199 116 c172 100 219 122 346 165
l148 49 466 -61 466 -62 99 -75 c55 -41 105 -84 112 -96 7 -11 25 -90 40 -175
22 -128 47 -218 145 -515 l118 -360 16 -465 17 -465 -56 -421 -56 -421 -133
-412 -134 -412 -76 -82 c-41 -45 -155 -164 -253 -264 l-178 -183 -316 -88
-316 -88 -279 114 -279 114 -104 221 c-150 319 -510 1131 -565 1272 -49 129
-207 449 -241 489 -17 22 -96 44 -635 181 l-615 156 -802 106 -801 106 -246
-177 c-135 -98 -249 -183 -254 -189 -5 -7 -62 -147 -125 -312 -88 -226 -139
-379 -208 -620 -51 -176 -95 -323 -98 -327 -3 -3 -151 -25 -328 -49 l-323 -42
-82 48 c-139 80 -332 211 -379 257 -29 27 -48 57 -52 77 -5 26 -44 71 -160
190 -85 86 -159 166 -165 177 -6 12 -14 82 -17 155 -6 147 -16 280 -45 614
l-20 220 69 515 68 516 213 514 214 515 243 302 243 302 197 65 c109 36 210
66 225 66 14 0 129 -22 255 -49z m1008 -3568 c37 -12 66 -33 111 -77 92 -93
139 -197 219 -491 36 -132 68 -249 72 -259 5 -17 7 -16 18 10 30 72 311 425
371 466 134 93 275 100 448 24 94 -42 167 -156 173 -270 3 -63 -2 -90 -49
-242 l-54 -172 -389 -376 c-399 -385 -528 -493 -637 -532 -79 -28 -182 3 -233
71 -18 23 -49 107 -96 262 -64 213 -77 244 -195 483 l-127 255 -5 140 c-2 83
3 219 12 335 l17 195 104 103 104 104 43 -7 c24 -3 66 -14 93 -22z m2265 -70
c-1 -34 -31 -198 -37 -203 -4 -4 -100 -49 -213 -100 -113 -51 -214 -97 -225
-103 -11 -6 12 25 52 69 140 154 230 236 320 290 90 54 103 60 103 47z m4169
-1233 l-12 -102 -61 -53 c-138 -121 -251 -213 -253 -207 -2 4 23 69 55 144
l57 137 109 96 c60 53 111 94 113 91 3 -3 0 -51 -8 -106z m-531 -492 c54 -70
134 -187 178 -263 l29 -50 -64 53 c-35 29 -80 62 -100 72 -46 23 -68 48 -125
140 -44 70 -46 78 -41 125 11 91 14 93 45 36 16 -28 50 -79 78 -113z"/>
<path d="M6025 8939 c-87 -13 -219 -52 -307 -92 -158 -72 -313 -193 -349 -272
-44 -96 -5 -456 66 -601 59 -120 162 -196 416 -309 380 -167 492 -190 617
-126 126 64 375 294 429 397 71 134 80 303 28 539 -31 142 -70 228 -130 288
-140 140 -480 218 -770 176z"/>
<path d="M10856 7704 c-309 -67 -568 -283 -641 -536 -20 -70 -22 -205 -5 -279
18 -78 70 -185 124 -256 119 -158 333 -295 559 -360 114 -33 230 -30 323 8
227 94 490 378 596 644 32 83 36 147 9 191 -29 48 -433 475 -482 510 -63 45
-117 70 -177 83 -72 15 -222 13 -306 -5z"/>
<path d="M3651 3650 c-108 -29 -194 -81 -286 -174 -92 -94 -136 -162 -176
-279 -58 -169 -93 -494 -87 -805 2 -89 0 -161 -4 -160 -4 2 -64 56 -133 122
-326 307 -531 463 -757 577 -138 69 -228 92 -342 87 -76 -3 -102 -9 -158 -35
-119 -56 -209 -171 -237 -301 -15 -72 -14 -121 5 -233 48 -284 211 -608 403
-800 110 -110 166 -147 434 -286 424 -220 613 -350 943 -647 169 -152 262
-199 394 -200 59 0 86 5 125 24 199 96 299 381 576 1635 137 620 138 622 70
880 -93 359 -231 535 -467 595 -97 25 -206 25 -303 0z"/>
</g>
</svg>
